<svg viewBox="0 0 100 100" fill="none" xmlns="http://www.w3.org/2000/svg" preserveAspectRatio="xMidYMid meet">
  <!-- Microchip -->
  <g>
    <rect x="20" y="20" width="60" height="60" fill="#0f172a" stroke="#2563eb" stroke-width="3" rx="4" />
    
    <!-- Chip pins - left side -->
    <g fill="#2563eb">
      <rect x="12" y="28" width="8" height="3" />
      <rect x="12" y="36" width="8" height="3" />
      <rect x="12" y="44" width="8" height="3" />
      <rect x="12" y="52" width="8" height="3" />
      <rect x="12" y="60" width="8" height="3" />
      <rect x="12" y="68" width="8" height="3" />
    </g>
    
    <!-- Chip pins - right side -->
    <g fill="#2563eb">
      <rect x="80" y="28" width="8" height="3" />
      <rect x="80" y="36" width="8" height="3" />
      <rect x="80" y="44" width="8" height="3" />
      <rect x="80" y="52" width="8" height="3" />
      <rect x="80" y="60" width="8" height="3" />
      <rect x="80" y="68" width="8" height="3" />
    </g>
    
    <!-- Chip pins - top side -->
    <g fill="#2563eb">
      <rect x="28" y="12" width="3" height="8" />
      <rect x="36" y="12" width="3" height="8" />
      <rect x="44" y="12" width="3" height="8" />
      <rect x="52" y="12" width="3" height="8" />
      <rect x="60" y="12" width="3" height="8" />
      <rect x="68" y="12" width="3" height="8" />
    </g>
    
    <!-- Chip pins - bottom side -->
    <g fill="#2563eb">
      <rect x="28" y="80" width="3" height="8" />
      <rect x="36" y="80" width="3" height="8" />
      <rect x="44" y="80" width="3" height="8" />
      <rect x="52" y="80" width="3" height="8" />
      <rect x="60" y="80" width="3" height="8" />
      <rect x="68" y="80" width="3" height="8" />
    </g>
    
    <!-- Letter A inside chip -->
    <text
      x="50"
      y="62"
      font-size="32"
      font-weight="bold"
      fill="#3b82f6"
      text-anchor="middle"
      font-family="system-ui, -apple-system, sans-serif"
    >
      A
    </text>
    
    <!-- Decorative circuit traces on chip -->
    <g stroke="#2563eb" stroke-width="2" opacity="0.5">
      <line x1="25" y1="30" x2="35" y2="30" />
      <line x1="65" y1="30" x2="75" y2="30" />
      <line x1="25" y1="70" x2="35" y2="70" />
      <line x1="65" y1="70" x2="75" y2="70" />
    </g>
  </g>
</svg>